<?xml version="1.0" encoding="UTF-8"?>
<svg version="1.1" xmlns="http://www.w3.org/2000/svg" width="1470" height="980">
<path d="M0 0 C485.1 0 970.2 0 1470 0 C1470 323.4 1470 646.8 1470 980 C984.9 980 499.8 980 0 980 C0 656.6 0 333.2 0 0 Z " fill="#FEFEFE" transform="translate(0,0)"/>
<path d="M0 0 C50.16 0 100.32 0 152 0 C152 1.98 152 3.96 152 6 C150.49373047 6.12955078 150.49373047 6.12955078 148.95703125 6.26171875 C134.93628513 7.62862945 122.36064386 10.61942773 113 22 C107.45192441 30.54898637 104.82342989 38.88357561 104 49 C105.54494141 49.13728516 105.54494141 49.13728516 107.12109375 49.27734375 C112.28262954 49.92040918 117.22840137 51.27331853 122.25561523 52.57885742 C140.98275774 58.43062581 140.98275774 58.43062581 159.29296875 55.09765625 C161.84914919 53.11689305 162.93128373 51.99240555 164 49 C166.33294775 48.95758277 168.66702567 48.95907063 171 49 C172.54543628 50.54543628 172.16264362 52.01771229 172.20532227 54.1706543 C172.22526749 55.06056564 172.24521271 55.95047699 172.26576233 56.86735535 C172.29083107 58.33100273 172.29083107 58.33100273 172.31640625 59.82421875 C172.33718735 60.83603714 172.35796844 61.84785553 172.37937927 62.89033508 C172.42278652 65.05176361 172.46380996 67.21324108 172.50268555 69.37475586 C172.56093596 72.60087792 172.62642678 75.82678215 172.69335938 79.05273438 C172.96497412 92.70324759 173.05353442 106.3470237 173 120 C170.69 120 168.38 120 166 120 C165.77449463 119.49774902 165.54898926 118.99549805 165.31665039 118.47802734 C152.93508165 91.1069303 136.88007143 69.30844159 108.28515625 57.39453125 C95.75986077 52.67505527 83.53726342 51.61639198 70.25 51.6875 C69.54411743 51.68932281 68.83823486 51.69114563 68.11096191 51.69302368 C46.97635886 51.78499402 28.57153536 55.14748638 12.640625 70.234375 C5.51480071 77.77630582 3.24224174 84.22070257 3.53125 94.625 C4.95013069 104.84094093 11.20137583 112.63924716 19 119 C24.44158958 122.94515245 29.54247533 126.04288784 36 128 C36 128.66 36 129.32 36 130 C37.56159059 130.48212214 39.12431928 130.96055873 40.6875 131.4375 C41.55761719 131.70433594 42.42773438 131.97117187 43.32421875 132.24609375 C45.8504022 132.95785055 48.4264286 133.48528572 51 134 C51 110.57 51 87.14 51 63 C59.6934375 62.9071875 59.6934375 62.9071875 68.5625 62.8125 C70.3576001 62.78518799 72.1527002 62.75787598 74.00219727 62.72973633 C75.48192684 62.72094586 76.96166388 62.71330808 78.44140625 62.70703125 C79.16356323 62.69168335 79.88572021 62.67633545 80.62976074 62.66052246 C88.58004058 62.65667617 94.76237385 64.35247477 103 66 C103 94.05 103 122.1 103 151 C105.31 151.33 107.62 151.66 110 152 C112.60856865 152.88035806 115.13576717 153.7952467 117.6875 154.8125 C119.09697224 155.35853974 120.50713631 155.90279686 121.91796875 156.4453125 C122.60810059 156.71118164 123.29823242 156.97705078 124.00927734 157.25097656 C127.75305087 158.65959775 131.55777563 159.87986117 135.359375 161.12109375 C138.94687662 162.31515864 142.47134275 163.64282414 146 165 C146 165.66 146 166.32 146 167 C146.86367188 167.26683594 147.72734375 167.53367187 148.6171875 167.80859375 C166.92935911 174.25803063 182.80908082 187.52134581 192.328125 204.34765625 C197.13115524 215.01917767 196.95571336 231.35339056 193.234375 242.39453125 C182.20219404 265.68081196 162.53591579 280.06745483 138.77294922 288.8203125 C134.22748475 290.3880697 129.63135395 291.71180884 125 293 C124.12085938 293.28359375 123.24171875 293.5671875 122.3359375 293.859375 C119.57437199 294.71852872 116.8266844 295.38459639 114 296 C113.37270996 296.13680176 112.74541992 296.27360352 112.09912109 296.41455078 C81.10367976 302.75079334 43.47115398 301.68254181 12.90820312 293.73144531 C10.24929318 293.0627 7.59761324 292.49250651 4.90625 291.97265625 C-0.27574459 290.9704585 -5.38319321 289.72819153 -10.5 288.4375 C-11.83804688 288.10588867 -11.83804688 288.10588867 -13.203125 287.76757812 C-14.05390625 287.55423828 -14.9046875 287.34089844 -15.78125 287.12109375 C-16.54501953 286.9295874 -17.30878906 286.73808105 -18.09570312 286.54077148 C-20 286 -20 286 -22 285 C-24.7447404 284.82169418 -27.44079052 284.72232725 -30.1875 284.6875 C-31.3022168 284.64399414 -31.3022168 284.64399414 -32.43945312 284.59960938 C-38.10935272 284.53500929 -41.35281895 285.72276304 -46 289 C-46.66 289.99 -47.32 290.98 -48 292 C-50.31 292 -52.62 292 -55 292 C-55 267.91 -55 243.82 -55 219 C-52.69 219 -50.38 219 -48 219 C-47.22076172 220.46759766 -47.22076172 220.46759766 -46.42578125 221.96484375 C-44.6204023 225.3616983 -42.80744572 228.7544468 -40.99121094 232.14550781 C-40.19021653 233.64411706 -39.39498701 235.14580672 -38.6015625 236.6484375 C-25.10726924 261.73514377 -3.55365528 279.53988761 23.66015625 287.78515625 C32.71684053 290.38336893 41.61443474 291.95715942 51 293 C51 260.66 51 228.32 51 195 C63.38340433 197.25152806 63.38340433 197.25152806 68.234375 198.953125 C69.30429687 199.32566406 70.37421875 199.69820312 71.4765625 200.08203125 C72.55679688 200.46746094 73.63703125 200.85289062 74.75 201.25 C75.81476563 201.61996094 76.87953125 201.98992187 77.9765625 202.37109375 C86.41838825 205.33686706 94.71420427 208.62877614 103 212 C103.02324087 220.33677823 103.04097471 228.67354277 103.05181217 237.01034546 C103.0570154 240.88207143 103.06406623 244.75377513 103.07543945 248.62548828 C103.08635973 252.3667116 103.09229609 256.10791358 103.09487724 259.84915161 C103.09671509 261.27157934 103.10030377 262.69400599 103.10573006 264.11642456 C103.13152352 271.16241584 103.12337839 278.03427654 102 285 C114.9326613 278.75255011 114.9326613 278.75255011 125 269 C125.66 269 126.32 269 127 269 C127.268125 268.278125 127.53625 267.55625 127.8125 266.8125 C129 264 129 264 130.5 261.6875 C135.177139 253.30762596 135.39801083 242.72859322 133.16015625 233.55859375 C128.08876163 219.09572761 117.95424919 209.74367054 104.8125 202.5625 C103.50526978 201.84755371 103.50526978 201.84755371 102.17163086 201.11816406 C93.90925739 196.73432011 85.43195532 193.63053156 76.53417969 190.81054688 C73.9730181 189.99136995 71.42741071 189.13479548 68.8828125 188.265625 C58.67771091 184.78890817 48.41490317 181.54401135 38.0769043 178.484375 C28.13355175 175.51722628 18.4622527 171.866657 8.8125 168.0625 C7.55663086 167.58006836 7.55663086 167.58006836 6.27539062 167.08789062 C1.41843896 165.16858081 -2.92421687 162.98951894 -7.26538086 160.07910156 C-9.19513732 158.80460187 -9.19513732 158.80460187 -12.375 157.6875 C-22.4654314 152.99023021 -32.15787522 144.10167412 -37 134 C-37.3609375 133.25234375 -37.721875 132.5046875 -38.09375 131.734375 C-43.92140912 119.16328176 -42.65390655 107.89009643 -38 95 C-34.83795867 87.44365123 -29.61284781 81.8613872 -24 76 C-23.21625 75.13375 -22.4325 74.2675 -21.625 73.375 C-15.72233532 68.03449386 -9.24895106 63.24914153 -1.99609375 59.921875 C-0.58986768 59.27242421 0.79195828 58.56880675 2.15234375 57.828125 C8.61418902 54.34453454 15.2595487 52.19310187 22.265625 50.11328125 C24.51875771 49.44158374 26.75831953 48.7168807 28.9609375 47.89453125 C32.78704427 46.76833787 36.40734124 46.54719496 40.375 46.375 C41.47908203 46.31699219 41.47908203 46.31699219 42.60546875 46.2578125 C44.40327406 46.16442002 46.20160108 46.0811629 48 46 C45.49496536 33.21113893 40.81635723 23.65563023 30 16 C20.31498922 9.97860753 11.14642338 7.51996682 0 6 C0 4.02 0 2.04 0 0 Z " fill="#040404" transform="translate(648,355)"/>
<path d="M0 0 C6.27 0 12.54 0 19 0 C19.495 2.475 19.495 2.475 20 5 C21.37233964 6.67677096 21.37233964 6.67677096 23.25 8.0625 C27.88267625 11.86129452 32.24028931 15.90189382 36.60644531 20.00024414 C39.56682403 22.8245243 39.56682403 22.8245243 43 25 C43 25.99 43 26.98 43 28 C32.605 28.495 32.605 28.495 22 29 C22 29.33 22 29.66 22 30 C28.93 30.33 35.86 30.66 43 31 C43 31.99 43 32.98 43 34 C42.10087891 34.39251953 42.10087891 34.39251953 41.18359375 34.79296875 C38.85128417 36.08220607 37.72629255 37.2515156 36.0625 39.3125 C32.7351305 43.25791221 29.17116973 46.87986938 25.5 50.5 C21.33824417 54.613507 17.33139113 58.76992929 13.546875 63.23828125 C11.90357363 65.10981892 10.16424178 66.83060571 8.375 68.5625 C6.00537202 70.8735529 4.05758128 73.20641355 2.1875 75.9375 C1.465625 76.948125 0.74375 77.95875 0 79 C-0.66 79 -1.32 79 -2 79 C-2 77.68 -2 76.36 -2 75 C-2.391875 75.86625 -2.78375 76.7325 -3.1875 77.625 C-5.15998515 81.29790337 -7.17011615 83.95243278 -10 87 C-10.66 87 -11.32 87 -12 87 C-12 69.51 -12 52.02 -12 34 C-12.66 34 -13.32 34 -14 34 C-14.33 51.82 -14.66 69.64 -15 88 C-15.99 88 -16.98 88 -18 88 C-18.17015625 87.41992188 -18.3403125 86.83984375 -18.515625 86.2421875 C-20.07379072 81.2195895 -21.7147072 77.1331103 -25 73 C-25.66 73 -26.32 73 -27 73 C-27.66 73.99 -28.32 74.98 -29 76 C-43.15330954 62.02336145 -43.15330954 62.02336145 -48.421875 55.796875 C-50.85893435 53.02200544 -53.51170706 50.47411276 -56.15234375 47.89453125 C-57.8140289 46.19068919 -59.24815237 44.45305378 -60.6875 42.5625 C-63.18680768 39.7929969 -64.33785776 39.20926527 -68 39 C-68 38.34 -68 37.68 -68 37 C-68.66 37 -69.32 37 -70 37 C-70 36.34 -70 35.68 -70 35 C-70.66 35 -71.32 35 -72 35 C-71.67 33.68 -71.34 32.36 -71 31 C-63.74 31 -56.48 31 -49 31 C-49 30.01 -49 29.02 -49 28 C-56.26 28 -63.52 28 -71 28 C-69.06799679 24.13599358 -67.79598583 22.68260909 -64.625 19.9375 C-63.74199219 19.16148437 -62.85898437 18.38546875 -61.94921875 17.5859375 C-60.97597656 16.73257812 -60.00273438 15.87921875 -59 15 C-56.80198279 13.0322764 -54.61803804 11.04955553 -52.4375 9.0625 C-51.9130127 8.58997803 -51.38852539 8.11745605 -50.84814453 7.63061523 C-48.04205907 5.1203062 -48.04205907 5.1203062 -46 2 C-42.83984375 1.5859375 -42.83984375 1.5859375 -38.9375 1.375 C-37.64714844 1.30023438 -36.35679687 1.22546875 -35.02734375 1.1484375 C-34.02832031 1.09945313 -33.02929688 1.05046875 -32 1 C-32 1.99 -32 2.98 -32 4 C-30.68 4.33 -29.36 4.66 -28 5 C-27.67 4.01 -27.34 3.02 -27 2 C-23.04 2 -19.08 2 -15 2 C-15 9.92 -15 17.84 -15 26 C-14.01 26 -13.02 26 -12 26 C-12 18.08 -12 10.16 -12 2 C-8.04 2 -4.08 2 0 2 C0 1.34 0 0.68 0 0 Z " fill="#CFCFCF" transform="translate(738,257)"/>
<path d="M0 0 C-0.47116933 5.41503305 -1.75725985 8.87748818 -4.6875 13.4375 C-5.04473145 13.99590576 -5.40196289 14.55431152 -5.77001953 15.12963867 C-12.14948322 24.99515588 -12.14948322 24.99515588 -15 28 C-15.66 28 -16.32 28 -17 28 C-17 28.66 -17 29.32 -17 30 C-29.67192034 40.45867398 -45.22015515 47.74200649 -61 52 C-61.71542969 52.19609863 -62.43085937 52.39219727 -63.16796875 52.59423828 C-87.08393778 58.8871019 -115.24803228 58.91072795 -137.7109375 47.4296875 C-145.42178493 42.61369747 -151.28224659 36.8457647 -154 28 C-154.99149299 21.65267433 -154.44562854 16.24836522 -151.20703125 10.65234375 C-148.55082908 7.0161835 -145.09816215 4.72822852 -141 3 C-133.73898888 1.98856883 -127.51318952 2.74968725 -121.12109375 6.390625 C-117.63024939 9.03929512 -115.83479938 12.07537121 -114 16 C-113.65582031 16.71414063 -113.31164062 17.42828125 -112.95703125 18.1640625 C-111.91540847 20.4229073 -110.94668602 22.69981911 -110 25 C-109.64808594 25.85207031 -109.29617188 26.70414063 -108.93359375 27.58203125 C-107.13432474 32.01049039 -105.44030723 36.43902709 -104 41 C-103.34 41 -102.68 41 -102 41 C-101.443125 41.763125 -100.88625 42.52625 -100.3125 43.3125 C-96.77065099 47.4287029 -93.47617454 48.71361592 -88.23046875 49.3203125 C-79.24843182 49.66621893 -72.07129113 47.61971976 -64.875 42.1875 C-54.40414291 32.14056425 -51.45497057 18.62791583 -49.35375977 4.82495117 C-49 3 -49 3 -48 1 C-42.61063474 0.85606923 -37.22123097 0.7137108 -31.83178711 0.57275391 C-30.00169782 0.52467433 -28.1716194 0.47617924 -26.34155273 0.42724609 C-23.69778202 0.35663025 -21.05397471 0.28755237 -18.41015625 0.21875 C-17.60353043 0.19687622 -16.7969046 0.17500244 -15.96583557 0.15246582 C-10.64208665 0.01584049 -5.32552762 -0.01861259 0 0 Z " fill="#060606" transform="translate(745,665)"/>
<path d="M0 0 C1.01108826 -0.01191879 1.01108826 -0.01191879 2.04260254 -0.02407837 C15.28405151 -0.1437494 27.49040017 1.78922638 39.9375 6.375 C38.0625 7.4375 38.0625 7.4375 35.9375 8.375 C34.9475 7.88 34.9475 7.88 33.9375 7.375 C33.6075 10.015 33.2775 12.655 32.9375 15.375 C31.56226865 15.23136473 30.18732598 15.08496483 28.8125 14.9375 C28.04679688 14.85628906 27.28109375 14.77507812 26.4921875 14.69140625 C24.76011646 14.47688369 23.03461363 14.20250827 21.3203125 13.875 C17.28341499 13.27832231 13.33270756 13.14598924 9.2578125 13.05859375 C8.53650146 13.03994263 7.81519043 13.0212915 7.07202148 13.0020752 C4.40229412 12.93427215 1.73238438 12.87380947 -0.9375 12.8125 C-9.909375 12.5959375 -9.909375 12.5959375 -19.0625 12.375 C-19.0625 35.805 -19.0625 59.235 -19.0625 83.375 C-24.98493383 82.52893802 -28.70985202 81.53484041 -34.0625 79.375 C-34.0625 78.715 -34.0625 78.055 -34.0625 77.375 C-34.93261719 77.2821875 -35.80273438 77.189375 -36.69921875 77.09375 C-47.16394759 74.85738518 -57.08427344 65.23938367 -62.94921875 56.59375 C-67.50217323 48.52790989 -68.65476256 40.95218912 -66.46484375 31.90625 C-61.81269189 19.61591392 -49.99460591 10.89529052 -38.4375 5.625 C-25.71163706 0.79299941 -13.44989926 0.08320365 0 0 Z " fill="#F7F7F7" transform="translate(718.0625,405.625)"/>
<path d="M0 0 C6.27 0 12.54 0 19 0 C19.33 1.65 19.66 3.3 20 5 C21.37233964 6.67677096 21.37233964 6.67677096 23.25 8.0625 C27.88267625 11.86129452 32.24028931 15.90189382 36.60644531 20.00024414 C39.56682403 22.8245243 39.56682403 22.8245243 43 25 C43 25.99 43 26.98 43 28 C32.605 28.495 32.605 28.495 22 29 C22 29.33 22 29.66 22 30 C28.93 30.33 35.86 30.66 43 31 C43 31.99 43 32.98 43 34 C42.40058594 34.26167969 41.80117188 34.52335937 41.18359375 34.79296875 C38.85128417 36.08220607 37.72629255 37.2515156 36.0625 39.3125 C32.7351305 43.25791221 29.17116973 46.87986938 25.5 50.5 C21.33824417 54.613507 17.33139113 58.76992929 13.546875 63.23828125 C11.90357363 65.10981892 10.16424178 66.83060571 8.375 68.5625 C6.00537202 70.8735529 4.05758128 73.20641355 2.1875 75.9375 C1.465625 76.948125 0.74375 77.95875 0 79 C-0.66 79 -1.32 79 -2 79 C-2 77.68 -2 76.36 -2 75 C-2.391875 75.9075 -2.78375 76.815 -3.1875 77.75 C-5.08481485 81.1520818 -6.81386114 82.82001025 -10 85 C-10.33 85 -10.66 85 -11 85 C-11 67.18 -11 49.36 -11 31 C-2.42 31 6.16 31 15 31 C15 30.34 15 29.68 15 29 C14.21761963 28.97494385 13.43523926 28.9498877 12.62915039 28.92407227 C9.10675051 28.80850212 5.5846444 28.68560051 2.0625 28.5625 C0.21495117 28.50352539 0.21495117 28.50352539 -1.66992188 28.44335938 C-2.83974609 28.40146484 -4.00957031 28.35957031 -5.21484375 28.31640625 C-6.29886475 28.27974854 -7.38288574 28.24309082 -8.49975586 28.20532227 C-11 28 -11 28 -12 27 C-12.08737645 25.14630389 -12.10698153 23.28932459 -12.09765625 21.43359375 C-12.09443359 20.30888672 -12.09121094 19.18417969 -12.08789062 18.02539062 C-12.07951172 16.84138672 -12.07113281 15.65738281 -12.0625 14.4375 C-12.05798828 13.24962891 -12.05347656 12.06175781 -12.04882812 10.83789062 C-12.03699686 7.89190588 -12.01906076 4.94594684 -12 2 C-8.04 2 -4.08 2 0 2 C0 1.34 0 0.68 0 0 Z " fill="#C7C7C7" transform="translate(738,257)"/>
<path d="M0 0 C2.79139988 0.96880046 5.56097682 1.98325135 8.32763672 3.02050781 C9.25640625 3.35953125 10.18517578 3.69855469 11.14208984 4.04785156 C26.88697242 9.85964682 43.67812826 16.63424381 55.26513672 29.14550781 C55.84521484 29.768125 56.42529297 30.39074219 57.02294922 31.03222656 C64.16804309 39.59556771 67.07313542 49.83282324 66.62060547 60.85253906 C65.44695836 71.72489633 61.16365106 80.34597494 52.71826172 87.34082031 C46.78645252 91.70466721 40.45055744 96.34915263 33.26513672 98.14550781 C33.59513672 74.05550781 33.92513672 49.96550781 34.26513672 25.14550781 C31.62513672 24.48550781 28.98513672 23.82550781 26.26513672 23.14550781 C24.90136554 22.6779965 23.5465443 22.18098314 22.21435547 21.62988281 C21.52510986 21.35104248 20.83586426 21.07220215 20.12573242 20.78491211 C19.40861084 20.49140869 18.69148926 20.19790527 17.95263672 19.89550781 C6.29268297 15.23815338 -5.65717964 11.55285432 -17.73486328 8.14550781 C-18.06486328 6.49550781 -18.39486328 4.84550781 -18.73486328 3.14550781 C-17.08486328 3.14550781 -15.43486328 3.14550781 -13.73486328 3.14550781 C-13.40486328 2.15550781 -13.07486328 1.16550781 -12.73486328 0.14550781 C-13.39486328 -0.51449219 -14.05486328 -1.17449219 -14.73486328 -1.85449219 C-10.43849632 -4.00267567 -4.37093123 -1.36567214 0 0 Z " fill="#FAFAFA" transform="translate(716.73486328125,541.8544921875)"/>
<path d="M0 0 C8.91 0 17.82 0 27 0 C27 18.15 27 36.3 27 55 C23.94121424 53.47060712 23.22053256 50.55842121 21.875 47.5625 C21.57005615 46.89871338 21.2651123 46.23492676 20.95092773 45.55102539 C19.27373251 41.88229376 17.64462356 38.19446497 16.04296875 34.4921875 C12.36838226 26.02719054 8.49042897 17.98737317 3.6640625 10.11328125 C2 7 2 7 0 0 Z " fill="#080808" transform="translate(695,289)"/>
<path d="M0 0 C8.58 0 17.16 0 26 0 C24.50328251 5.23851121 23.18957819 8.92616027 20.75 13.625 C17.88672231 19.19387366 15.12135533 24.80320166 12.4296875 30.45703125 C12.11761353 31.11092834 11.80553955 31.76482544 11.48400879 32.4385376 C10.21173685 35.1047281 8.93964806 37.77092744 7.67858887 40.44244385 C6.78334819 42.33796756 5.88065562 44.22977999 4.9765625 46.12109375 C4.45143066 47.2289624 3.92629883 48.33683105 3.38525391 49.47827148 C2 52 2 52 0 53 C0 35.51 0 18.02 0 0 Z " fill="#040404" transform="translate(727,289)"/>
<path d="M0 0 C2.79139988 0.96880046 5.56097682 1.98325135 8.32763672 3.02050781 C9.25640625 3.35953125 10.18517578 3.69855469 11.14208984 4.04785156 C20.21396477 7.3964875 28.81529852 11.31481048 37.32763672 15.89550781 C38.09785156 16.30671875 38.86806641 16.71792969 39.66162109 17.14160156 C41.53094728 18.14012362 43.39826155 19.14241071 45.26513672 20.14550781 C42.26513672 22.14550781 42.26513672 22.14550781 39.07763672 21.77050781 C38.14951172 21.56425781 37.22138672 21.35800781 36.26513672 21.14550781 C35.60513672 22.46550781 34.94513672 23.78550781 34.26513672 25.14550781 C28.57442653 23.84258427 23.34802283 22.10373066 17.95263672 19.89550781 C6.29268297 15.23815338 -5.65717964 11.55285432 -17.73486328 8.14550781 C-18.06486328 6.49550781 -18.39486328 4.84550781 -18.73486328 3.14550781 C-17.08486328 3.14550781 -15.43486328 3.14550781 -13.73486328 3.14550781 C-13.40486328 2.15550781 -13.07486328 1.16550781 -12.73486328 0.14550781 C-13.39486328 -0.51449219 -14.05486328 -1.17449219 -14.73486328 -1.85449219 C-10.43849632 -4.00267567 -4.37093123 -1.36567214 0 0 Z " fill="#F0F0F0" transform="translate(716.73486328125,541.8544921875)"/>
<path d="M0 0 C6.93 0 13.86 0 21 0 C22.216875 2.784375 23.43375 5.56875 24.6875 8.4375 C27.13625779 13.98933155 29.64476892 19.39242942 32.69921875 24.640625 C34.55725628 28.01075914 36.22143501 31.46333912 37.875 34.9375 C38.19799072 35.60160889 38.52098145 36.26571777 38.85375977 36.94995117 C39.6319012 38.60523911 40.32360035 40.30059841 41 42 C40.505 42.99 40.505 42.99 40 44 C25.86427362 30.04072512 25.86427362 30.04072512 20.5703125 23.7890625 C18.17657907 21.06187367 15.56909139 18.56026826 12.984375 16.015625 C10.37737356 13.36756842 7.96003709 10.57864741 5.54296875 7.7578125 C4.28121617 6.32037286 2.93240069 4.95977503 1.5625 3.625 C0 2 0 2 0 0 Z " fill="#0B0B0B" transform="translate(669,289)"/>
<path d="M0 0 C6.93 0 13.86 0 21 0 C14.25633505 8.99155326 14.25633505 8.99155326 10.94140625 12.21875 C10.22533203 12.92386719 9.50925781 13.62898438 8.77148438 14.35546875 C8.04251953 15.06316406 7.31355469 15.77085937 6.5625 16.5 C1.7020213 21.24382721 -3.01108999 26.01457488 -7.41577148 31.1887207 C-10.12044841 34.28103047 -13.06541295 37.12814759 -16 40 C-16.98040065 40.97793113 -17.95971147 41.95695713 -18.9375 42.9375 C-19.9584375 43.9584375 -19.9584375 43.9584375 -21 45 C-19.13566961 38.76827776 -16.72681796 33.23463842 -13.5625 27.5625 C-11.04865943 22.94943147 -8.62111377 18.42033622 -6.75 13.5 C-5 9 -5 9 0 0 Z " fill="#0A0A0A" transform="translate(759,289)"/>
<path d="M0 0 C3.63 0 7.26 0 11 0 C11 8.25 11 16.5 11 25 C2.09 25 -6.82 25 -16 25 C-14.27131165 20.67827913 -12.68130926 17.96261286 -9.9375 14.3125 C-7.24079956 10.79692983 -7.24079956 10.79692983 -5 7 C-4.34 7 -3.68 7 -3 7 C-2.87625 6.401875 -2.7525 5.80375 -2.625 5.1875 C-2 3 -2 3 0 0 Z " fill="#050505" transform="translate(711,259)"/>
<path d="M0 0 C10 0 10 0 12.796875 2.02734375 C15.36561222 5.49331719 17.88141518 8.95643598 20.25 12.5625 C20.69601562 13.22185547 21.14203125 13.88121094 21.6015625 14.56054688 C22.02695312 15.20185547 22.45234375 15.84316406 22.890625 16.50390625 C23.27250977 17.07955322 23.65439453 17.6552002 24.04785156 18.24829102 C25 20 25 20 26 24 C17.42 24 8.84 24 0 24 C0 16.08 0 8.16 0 0 Z " fill="#090909" transform="translate(727,260)"/>
<path d="M0 0 C4.29 0 8.58 0 13 0 C11.0717986 4.82050349 8.94032719 8.17843545 5.87109375 12.28515625 C3.92616332 14.92915465 3.92616332 14.92915465 2.72265625 17.87109375 C1.09505252 21.1970666 0.07166262 22.87244148 -3 25 C-9.89700806 26.25477922 -17.05675769 25.60651895 -24 25 C-22.4844458 21.78632963 -21.06803732 19.95581068 -18.3125 17.6875 C-15.54197828 15.34783699 -12.91090997 12.96738903 -10.375 10.375 C-8.21545279 8.17087498 -6.02063356 6.1325263 -3.625 4.1875 C-0.9683878 2.2707913 -0.9683878 2.2707913 0 0 Z " fill="#0F0F0F" transform="translate(692,259)"/>
<path d="M0 0 C4.21859268 -0.82091533 7.78532349 -0.91089873 12 0 C16.28790378 2.996922 19.75715982 6.52739289 23.34912109 10.31005859 C26.52628092 13.56239523 29.98675201 16.5142282 33.39453125 19.52075195 C34.63344987 20.64078657 35.82221398 21.81584757 37 23 C37 23.66 37 24.32 37 25 C19.32713593 27.37800752 19.32713593 27.37800752 14.12060547 23.65673828 C10.98904354 20.14759089 8.93352175 16.0682266 6.92724609 11.84228516 C5.6902909 9.38465907 4.10373419 7.31973736 2.375 5.1875 C0 2 0 2 0 0 Z " fill="#101010" transform="translate(743,259)"/>
<path d="M0 0 C0.12375 0.598125 0.2475 1.19625 0.375 1.8125 C0.95475985 4.26231348 0.95475985 4.26231348 3 7 C3 7.33 3 7.66 3 8 C12.24 8 21.48 8 31 8 C31 8.33 31 8.66 31 9 C22.09 9 13.18 9 4 9 C5.155 11.31 6.31 13.62 7.5 16 C18.140625 37.28125 18.140625 37.28125 19.04492188 39.10546875 C19.73309466 40.47055586 20.43986535 41.82632378 21.15820312 43.17578125 C21.7218457 44.24892578 21.7218457 44.24892578 22.296875 45.34375 C22.64588867 45.99537109 22.99490234 46.64699219 23.35449219 47.31835938 C23.56750977 47.87330078 23.78052734 48.42824219 24 49 C23.505 49.99 23.505 49.99 23 51 C21.68 51 20.36 51 19 51 C16.25790965 48.25790965 15.16140478 44.95931469 13.6875 41.4375 C11.4572465 36.21548526 9.12239026 31.21051125 6.265625 26.296875 C-1 13.11111111 -1 13.11111111 -1 9 C-7.93 9 -14.86 9 -22 9 C-19.525 12.465 -19.525 12.465 -17 16 C-17.66 16.33 -18.32 16.66 -19 17 C-19.66 16.67 -20.32 16.34 -21 16 C-21 15.34 -21 14.68 -21 14 C-21.66 14 -22.32 14 -23 14 C-23 13.34 -23 12.68 -23 12 C-23.66 12 -24.32 12 -25 12 C-24.67 10.68 -24.34 9.36 -24 8 C-16.74 8 -9.48 8 -2 8 C-2 7.01 -2 6.02 -2 5 C-9.26 5 -16.52 5 -24 5 C-23.67 4.34 -23.34 3.68 -23 3 C-22.06148193 3.02356567 -22.06148193 3.02356567 -21.10400391 3.04760742 C-18.27776069 3.10984675 -15.45166139 3.14895462 -12.625 3.1875 C-11.64015625 3.21263672 -10.6553125 3.23777344 -9.640625 3.26367188 C-8.69960938 3.27333984 -7.75859375 3.28300781 -6.7890625 3.29296875 C-5.91975098 3.3086792 -5.05043945 3.32438965 -4.15478516 3.34057617 C-3.0881665 3.17199097 -3.0881665 3.17199097 -2 3 C-1.34 2.01 -0.68 1.02 0 0 Z " fill="#B8B8B8" transform="translate(691,280)"/>
<path d="M0 0 C1.89505644 0.49680127 3.79022221 0.99322482 5.68725586 1.48242188 C10.85603387 2.81988183 15.95060964 4.26257536 21 6 C20.67 6.99 20.34 7.98 20 9 C20.66 9.66 21.32 10.32 22 11 C-0.3099074 9.34134832 -0.3099074 9.34134832 -9.46875 6.72265625 C-12.04903961 5.98599949 -14.6151072 5.44146293 -17.25 4.9375 C-21.54652382 4.11017583 -25.7647886 3.09801777 -30 2 C-25.87965644 0.83334093 -22.27051305 0.85998318 -18 1 C-17.67 1.33 -17.34 1.66 -17 2 C-16.52691406 1.68804688 -16.05382812 1.37609375 -15.56640625 1.0546875 C-9.61944716 -2.44625138 -6.39364435 -2.00148866 0 0 Z " fill="#111111" transform="translate(670,642)"/>
<path d="M0 0 C0 3.67848871 -1.11665975 5.498608 -2.8125 8.75 C-4.73359625 12.44988907 -6.50688518 16.14892318 -8.12280273 19.99169922 C-10.41666466 25.24338534 -12.99971953 30.37158992 -15.50390625 35.52539062 C-15.93832031 36.42837891 -16.37273438 37.33136719 -16.8203125 38.26171875 C-17.21492676 39.07600342 -17.60954102 39.89028809 -18.01611328 40.72924805 C-18.92099188 42.81765397 -19.52583612 44.7790673 -20 47 C-20.66 47 -21.32 47 -22 47 C-22 45.68 -22 44.36 -22 43 C-22.4125 43.928125 -22.825 44.85625 -23.25 45.8125 C-24.93441786 48.88054681 -26.08454083 50.19040465 -29 52 C-27.64057045 47.64170821 -25.95659815 43.62762142 -23.953125 39.52734375 C-23.65944031 38.92297989 -23.36575562 38.31861603 -23.06317139 37.69593811 C-22.12891432 35.77474647 -21.18975597 33.85600696 -20.25 31.9375 C-19.02417337 29.42668897 -17.80053642 26.91481913 -16.578125 24.40234375 C-16.27958618 23.78934418 -15.98104736 23.1763446 -15.67346191 22.54476929 C-12.69251122 16.40428234 -9.83276909 10.21025117 -7 4 C-6.01 4 -5.02 4 -4 4 C-3.67 3.01 -3.34 2.02 -3 1 C-2.01 0.67 -1.02 0.34 0 0 Z " fill="#DFDFDF" transform="translate(758,289)"/>
<path d="M0 0 C0.66 0 1.32 0 2 0 C3.1447967 2.28959339 4.28880332 4.57954637 5.4296875 6.87109375 C6.54763412 9.0986441 7.679337 11.31931327 8.8203125 13.53515625 C9.12960693 14.14020996 9.43890137 14.74526367 9.75756836 15.36865234 C10.65103578 17.11617985 11.5500118 18.86088763 12.44921875 20.60546875 C14.03443831 24.07538259 15.04999816 27.31698794 16 31 C7.9493385 24.29111542 0.78985083 16.97807473 -6 9 C-5.01 8.67 -4.02 8.34 -3 8 C-2.34 7.01 -1.68 6.02 -1 5 C-1.33 4.01 -1.66 3.02 -2 2 C-1.34 1.34 -0.68 0.68 0 0 Z " fill="#101010" transform="translate(694,302)"/>
<path d="M0 0 C2.31 0 4.62 0 7 0 C7 0.99 7 1.98 7 3 C7.99 3.33 8.98 3.66 10 4 C9.67 5.32 9.34 6.64 9 8 C8.34 8 7.68 8 7 8 C6.72929688 8.56976563 6.45859375 9.13953125 6.1796875 9.7265625 C4.96580952 12.06589026 3.60237597 14.19338264 2.125 16.375 C1.63257813 17.10460937 1.14015625 17.83421875 0.6328125 18.5859375 C0.09398437 19.38257813 -0.44484375 20.17921875 -1 21 C-2.98 23.97 -2.98 23.97 -5 27 C0.94 27 6.88 27 13 27 C13 27.33 13 27.66 13 28 C10.94921875 28.22786458 8.8984375 28.45572917 6.84765625 28.68359375 C4.98859771 28.81886614 4.98859771 28.81886614 4 30 C2.31816052 30.23287008 0.6287584 30.41264166 -1.0625 30.5625 C-2.44115234 30.68818359 -2.44115234 30.68818359 -3.84765625 30.81640625 C-4.55792969 30.87699219 -5.26820313 30.93757813 -6 31 C-7.7186241 27.84918914 -8.06587504 26.33669467 -7.3671875 22.765625 C-6.0485864 18.52774121 -3.66878241 15.30860496 -1 11.8125 C2.92650194 6.67096284 2.92650194 6.67096284 6 1 C4.02 1 2.04 1 0 1 C0 0.67 0 0.34 0 0 Z " fill="#E4E4E4" transform="translate(699,258)"/>
<path d="M0 0 C0.66 0 1.32 0 2 0 C2 17.49 2 34.98 2 53 C2.66 53 3.32 53 4 53 C4 54.32 4 55.64 4 57 C2.35 56.34 0.7 55.68 -1 55 C-1.02531484 47.64934015 -1.04285202 40.2986915 -1.05493164 32.94799805 C-1.05996641 30.44636617 -1.06679461 27.94473724 -1.07543945 25.44311523 C-1.08754238 21.85139234 -1.09323682 18.25970828 -1.09765625 14.66796875 C-1.10539818 12.98503975 -1.10539818 12.98503975 -1.11329651 11.26811218 C-1.11337204 10.22725967 -1.11344757 9.18640717 -1.11352539 8.11401367 C-1.115746 7.19690109 -1.11796661 6.27978851 -1.12025452 5.33488464 C-1 3 -1 3 0 0 Z " fill="#F8F8F8" transform="translate(724,291)"/>
<path d="M0 0 C3 1 3 1 4.90234375 4.31640625 C5.59091433 5.72684385 6.26888681 7.14249293 6.9375 8.5625 C7.27201172 9.25408203 7.60652344 9.94566406 7.95117188 10.65820312 C8.62791396 12.05732501 9.29896995 13.45921124 9.96435547 14.86376953 C10.67785837 16.33551643 11.41824085 17.79443266 12.18017578 19.24169922 C13.17492706 21.13330834 14.09412956 23.06425365 15 25 C14.67 25.66 14.34 26.32 14 27 C12.68 27 11.36 27 10 27 C7.17349829 24.17349829 6.02621879 20.69285725 4.5 17.0625 C3.88812522 15.6147377 3.27363438 14.16807762 2.65625 12.72265625 C2.25116211 11.75984741 2.25116211 11.75984741 1.83789062 10.77758789 C0.92546244 8.72895372 0.92546244 8.72895372 -1 6 C-0.625 2.8125 -0.625 2.8125 0 0 Z " fill="#DADADA" transform="translate(700,304)"/>
<path d="M0 0 C0.33 0.99 0.66 1.98 1 3 C1.99 3 2.98 3 4 3 C2.50256489 8.03682719 0.3581787 12.67436323 -1.87890625 17.4140625 C-2.83728969 19.6246891 -3.50899273 21.64978541 -4 24 C-4.66 24 -5.32 24 -6 24 C-6 22.68 -6 21.36 -6 20 C-6.4125 20.928125 -6.825 21.85625 -7.25 22.8125 C-8.93441786 25.88054681 -10.08454083 27.19040465 -13 29 C-11.72451525 24.96530333 -10.2387032 21.19173454 -8.3984375 17.3828125 C-7.90859375 16.36445313 -7.41875 15.34609375 -6.9140625 14.296875 C-6.40617188 13.25015625 -5.89828125 12.2034375 -5.375 11.125 C-4.859375 10.05507813 -4.34375 8.98515625 -3.8125 7.8828125 C-2.54486479 5.25364318 -1.2739434 2.62611698 0 0 Z " fill="#DDDDDD" transform="translate(742,312)"/>
<path d="M0 0 C6.27 0 12.54 0 19 0 C18.67 1.32 18.34 2.64 18 4 C17.67 3.67 17.34 3.34 17 3 C14.98405418 2.76572222 12.961526 2.58663876 10.9375 2.4375 C9.83277344 2.35371094 8.72804688 2.26992188 7.58984375 2.18359375 C6.73519531 2.12300781 5.88054688 2.06242187 5 2 C5.639375 2.886875 6.27875 3.77375 6.9375 4.6875 C8.80829757 7.69211428 9.59423966 9.5510371 10 13 C6 13 6 13 4.515625 11.5390625 C4.09796875 10.90742188 3.6803125 10.27578125 3.25 9.625 C2.82203125 8.99851562 2.3940625 8.37203125 1.953125 7.7265625 C1 6 1 6 1 4 C-2.96 3.67 -6.92 3.34 -11 3 C-11 10.92 -11 18.84 -11 27 C-11.33 27 -11.66 27 -12 27 C-12 18.75 -12 10.5 -12 2 C-8.04 2 -4.08 2 0 2 C0 1.34 0 0.68 0 0 Z " fill="#C5C5C5" transform="translate(738,257)"/>
<path d="M0 0 C2 2 2 2 2 6 C1.67 6.33 1.34 6.66 1 7 C1.66 7.33 2.32 7.66 3 8 C3.12375 7.401875 3.2475 6.80375 3.375 6.1875 C4 4 4 4 6 1 C6.99 1.33 7.98 1.66 9 2 C6.74479474 6.17742719 4.01599829 9.19261536 0.625 12.5 C-0.31085937 13.4178125 -1.24671875 14.335625 -2.2109375 15.28125 C-3.13132812 16.1784375 -4.05171875 17.075625 -5 18 C-6.67172686 19.66170318 -8.33629766 21.33024784 -10 23 C-7.60292686 14.82175048 -3.91141228 7.53348722 0 0 Z " fill="#202020" transform="translate(748,311)"/>
<path d="M0 0 C0.33 0 0.66 0 1 0 C1 2.64 1 5.28 1 8 C3.475 8.495 3.475 8.495 6 9 C6 9.33 6 9.66 6 10 C3.39643759 10.50333542 0.79223349 11.00279378 -1.8125 11.5 C-2.55048828 11.64308594 -3.28847656 11.78617187 -4.04882812 11.93359375 C-7.07794391 12.50926281 -9.909196 13 -13 13 C-12.67 12.01 -12.34 11.02 -12 10 C-11.01 9.67 -10.02 9.34 -9 9 C-8.67 8.34 -8.34 7.68 -8 7 C-11.63 7 -15.26 7 -19 7 C-15.27933528 4.51955685 -12.13459526 4.55618827 -7.8125 4.375 C-7.06291016 4.33632813 -6.31332031 4.29765625 -5.54101562 4.2578125 C-3.69440801 4.16371784 -1.8472381 4.08077681 0 4 C0 2.68 0 1.36 0 0 Z " fill="#252525" transform="translate(696,397)"/>
<path d="M0 0 C3.6351347 1.81756735 4.60948267 6.34358619 6.1875 9.9375 C6.56841797 10.77474609 6.94933594 11.61199219 7.34179688 12.47460938 C7.69693359 13.27576172 8.05207031 14.07691406 8.41796875 14.90234375 C8.74563232 15.63960693 9.0732959 16.37687012 9.41088867 17.13647461 C10 19 10 19 9 21 C4.38 16.38 -0.24 11.76 -5 7 C-4.01 6.67 -3.02 6.34 -2 6 C-0.77479736 2.99152582 -0.77479736 2.99152582 0 0 Z " fill="#252525" transform="translate(700,312)"/>
<path d="M0 0 C9.57 0.33 19.14 0.66 29 1 C28.67 1.99 28.34 2.98 28 4 C18.76 4.33 9.52 4.66 0 5 C0 3.35 0 1.7 0 0 Z " fill="#F7F7F7" transform="translate(725,284)"/>
<path d="M0 0 C3.63 0 7.26 0 11 0 C11 8.25 11 16.5 11 25 C2.09 25 -6.82 25 -16 25 C-14 20 -14 20 -12 19 C-11.67 20.65 -11.34 22.3 -11 24 C-4.07 24 2.86 24 10 24 C10 16.41 10 8.82 10 1 C6.7 1 3.4 1 0 1 C0 0.67 0 0.34 0 0 Z " fill="#383838" transform="translate(711,259)"/>
<path d="M0 0 C0.33 1.32 0.66 2.64 1 4 C3.64 4.33 6.28 4.66 9 5 C8.34 6.32 7.68 7.64 7 9 C9.5654594 11.5654594 11.47686668 11.54046087 15 12 C15 13.32 15 14.64 15 16 C10.51695963 14.52404517 6.06783525 12.96771452 1.625 11.375 C0.98433594 11.14554687 0.34367188 10.91609375 -0.31640625 10.6796875 C-1.87781405 10.12037724 -3.43893701 9.56027192 -5 9 C-5 8.67 -5 8.34 -5 8 C-1.535 7.505 -1.535 7.505 2 7 C1.34 6.34 0.68 5.68 0 5 C-0.125 2.375 -0.125 2.375 0 0 Z " fill="#1A1A1A" transform="translate(751,400)"/>
<path d="M0 0 C-0.33 0.66 -0.66 1.32 -1 2 C-0.34 2.33 0.32 2.66 1 3 C1.495 3.99 1.495 3.99 2 5 C-6.08168925 7.07001397 -13.81574655 7.24065342 -22.125 7.125 C-23.98898437 7.11146484 -23.98898437 7.11146484 -25.890625 7.09765625 C-28.92729004 7.07429729 -31.96353853 7.04154283 -35 7 C-35 6.67 -35 6.34 -35 6 C-20.15 5.505 -20.15 5.505 -5 5 C-5.33 3.35 -5.66 1.7 -6 0 C-2.25 -1.125 -2.25 -1.125 0 0 Z " fill="#4D4D4D" transform="translate(672,714)"/>
<path d="M0 0 C4.23431576 3.60700972 6.4692099 8.14586161 9 13 C8.01 13.495 8.01 13.495 7 14 C1.3853385 11.87553349 -0.49664733 7.08127328 -3 2 C-2.01 1.34 -1.02 0.68 0 0 Z " fill="#DBDBDB" transform="translate(748,268)"/>
<path d="M0 0 C0.66 0.33 1.32 0.66 2 1 C1.49396008 3.16874252 1.00016187 4.99967627 0 7 C5.94 7 11.88 7 18 7 C18 7.33 18 7.66 18 8 C15.94921875 8.22786458 13.8984375 8.45572917 11.84765625 8.68359375 C9.98859771 8.81886614 9.98859771 8.81886614 9 10 C7.31816052 10.23287008 5.6287584 10.41264166 3.9375 10.5625 C3.01839844 10.64628906 2.09929688 10.73007812 1.15234375 10.81640625 C0.44207031 10.87699219 -0.26820313 10.93757813 -1 11 C-2.57266062 7.94204879 -3.18219122 6.61664721 -2.1875 3.25 C-1 1 -1 1 0 0 Z " fill="#F7F7F7" transform="translate(694,278)"/>
<path d="M0 0 C0 3.84323789 -0.93721621 5.7683054 -3 9 C-6.1875 10.375 -6.1875 10.375 -9 11 C-9.12375 12.11375 -9.2475 13.2275 -9.375 14.375 C-10 18 -10 18 -12 20 C-13.39211215 15.82366356 -11.9535579 14.21039485 -10.0625 10.3125 C-9.21365234 8.54326172 -9.21365234 8.54326172 -8.34765625 6.73828125 C-7.90292969 5.83464844 -7.45820312 4.93101562 -7 4 C-6.01 4 -5.02 4 -4 4 C-3.67 3.01 -3.34 2.02 -3 1 C-2.01 0.67 -1.02 0.34 0 0 Z " fill="#DEDEDE" transform="translate(758,289)"/>
<path d="M0 0 C1.97119141 -0.34057617 1.97119141 -0.34057617 4.3515625 -0.29296875 C5.62773438 -0.2784668 5.62773438 -0.2784668 6.9296875 -0.26367188 C7.81914063 -0.23853516 8.70859375 -0.21339844 9.625 -0.1875 C10.97078125 -0.16719727 10.97078125 -0.16719727 12.34375 -0.14648438 C14.56309789 -0.11106925 16.78125188 -0.06168461 19 0 C19 0.99 19 1.98 19 3 C12.07 3 5.14 3 -2 3 C-1.34 2.01 -0.68 1.02 0 0 Z " fill="#F7F7F7" transform="translate(670,285)"/>
<path d="M0 0 C1.65 0 3.3 0 5 0 C5.66 2.64 6.32 5.28 7 8 C6.38125 8.185625 5.7625 8.37125 5.125 8.5625 C1.95882871 10.70432176 1.93407014 13.38826214 1 17 C-1.23203928 20.44106056 -3.03641738 22.67880579 -7 24 C-5.37401736 20.59356638 -3.45513642 17.41430353 -1.5 14.1875 C1.08421325 9.79809829 2.98135665 5.98003416 4 1 C2.68 0.67 1.36 0.34 0 0 Z " fill="#CFCFCF" transform="translate(741,664)"/>
<path d="M0 0 C6.27 0 12.54 0 19 0 C19 0.99 19 1.98 19 3 C12.73 3 6.46 3 0 3 C0 2.01 0 1.02 0 0 Z " fill="#F8F8F8" transform="translate(759,285)"/>
<path d="M0 0 C0.66 0.33 1.32 0.66 2 1 C-0.31578947 7.4598338 -0.31578947 7.4598338 -3.375 9.875 C-5.97226027 10.98811154 -8.21249577 11.58187436 -11 12 C-11.928125 12.185625 -12.85625 12.37125 -13.8125 12.5625 C-14.534375 12.706875 -15.25625 12.85125 -16 13 C-13.57415034 10.39859544 -10.91125281 8.41114408 -8 6.375 C-7.13375 5.76398437 -6.2675 5.15296875 -5.375 4.5234375 C-3 3 -3 3 0 2 C0 1.34 0 0.68 0 0 Z " fill="#DBDBDB" transform="translate(728,693)"/>
<path d="M0 0 C0.80824219 0.10183594 1.61648438 0.20367188 2.44921875 0.30859375 C3.06410156 0.39238281 3.67898438 0.47617187 4.3125 0.5625 C3.6525 1.2225 2.9925 1.8825 2.3125 2.5625 C4.9525 2.5625 7.5925 2.5625 10.3125 2.5625 C6.93225332 4.605239 4.29414934 4.83226872 0.375 4.8125 C-0.64464844 4.81765625 -1.66429687 4.8228125 -2.71484375 4.828125 C-5.74082204 4.55773535 -7.94575647 3.83491136 -10.6875 2.5625 C-6.76357827 -0.05344782 -4.5634425 -0.59523163 0 0 Z " fill="#D1D1D1" transform="translate(659.6875,710.4375)"/>
<path d="M0 0 C2.52394612 3.12488567 4.39701907 6.31314387 6 10 C5.67 10.66 5.34 11.32 5 12 C3.68 12 2.36 12 1 12 C-1.543667 9.456333 -2.23021995 7.49900021 -3 4 C-1.625 1.625 -1.625 1.625 0 0 Z " fill="#D5D5D5" transform="translate(709,319)"/>
<path d="M0 0 C7.26 0 14.52 0 22 0 C22 0.33 22 0.66 22 1 C15.4 1 8.8 1 2 1 C4.475 4.465 4.475 4.465 7 8 C6.01 8.495 6.01 8.495 5 9 C4.34 8.67 3.68 8.34 3 8 C3 7.34 3 6.68 3 6 C2.34 6 1.68 6 1 6 C1 5.34 1 4.68 1 4 C0.34 4 -0.32 4 -1 4 C-0.67 2.68 -0.34 1.36 0 0 Z " fill="#BDBDBD" transform="translate(667,288)"/>
<path d="M0 0 C0.93065133 2.60582371 1.14917407 3.64198224 0.0625 6.25 C-0.4634375 7.11625 -0.4634375 7.11625 -1 8 C-1.33 7.01 -1.66 6.02 -2 5 C-9.26 5 -16.52 5 -24 5 C-23.67 4.34 -23.34 3.68 -23 3 C-22.06148193 3.02356567 -22.06148193 3.02356567 -21.10400391 3.04760742 C-18.27776069 3.10984675 -15.45166139 3.14895462 -12.625 3.1875 C-11.64015625 3.21263672 -10.6553125 3.23777344 -9.640625 3.26367188 C-8.69960938 3.27333984 -7.75859375 3.28300781 -6.7890625 3.29296875 C-5.91975098 3.3086792 -5.05043945 3.32438965 -4.15478516 3.34057617 C-3.0881665 3.17199097 -3.0881665 3.17199097 -2 3 C-1.34 2.01 -0.68 1.02 0 0 Z " fill="#D8D8D8" transform="translate(691,280)"/>
<path d="M0 0 C-0.30618405 3.67420866 -0.75771784 4.78135513 -3.5625 7.3125 C-4.366875 7.869375 -5.17125 8.42625 -6 9 C-6.33 8.34 -6.66 7.68 -7 7 C-7.99 7.495 -7.99 7.495 -9 8 C-7.07834179 2.53066508 -6.10288444 0 0 0 Z " fill="#D3D3D3" transform="translate(701,272)"/>
<path d="M0 0 C0.99 0 1.98 0 3 0 C4.39049921 3.16022548 3.90218951 4.27014325 2.6875 7.625 C1 11 1 11 -1 13 C-1.02696365 11.20841511 -1.04637917 9.41671527 -1.0625 7.625 C-1.07410156 6.62726562 -1.08570313 5.62953125 -1.09765625 4.6015625 C-1 2 -1 2 0 0 Z " fill="#E1E1E1" transform="translate(778,606)"/>
<path d="M0 0 C0.66 0.66 1.32 1.32 2 2 C2.66 1.67 3.32 1.34 4 1 C4.33 1.66 4.66 2.32 5 3 C5.66 2.67 6.32 2.34 7 2 C7 4.33333333 7 6.66666667 7 9 C6.34 9.66 5.68 10.32 5 11 C3.02 8.03 1.04 5.06 -1 2 C-0.67 1.34 -0.34 0.68 0 0 Z " fill="#E7E7E7" transform="translate(832,545)"/>
<path d="M0 0 C0 0.66 0 1.32 0 2 C0.66 2 1.32 2 2 2 C2 2.66 2 3.32 2 4 C2.99 4.33 3.98 4.66 5 5 C5.33 6.65 5.66 8.3 6 10 C4.53699018 9.06981474 3.07974421 8.13055973 1.625 7.1875 C0.81289063 6.66542969 0.00078125 6.14335938 -0.8359375 5.60546875 C-3 4 -3 4 -5 1 C-2 0 -2 0 0 0 Z " fill="#DDDDDD" transform="translate(821,532)"/>
<path d="M0 0 C0.99 0.33 1.98 0.66 3 1 C3.73046875 2.84765625 3.73046875 2.84765625 4.1875 5.0625 C4.34605469 5.79597656 4.50460937 6.52945312 4.66796875 7.28515625 C4.83232422 8.13400391 4.83232422 8.13400391 5 9 C3.35 8.67 1.7 8.34 0 8 C-1.125 2.25 -1.125 2.25 0 0 Z " fill="#E9E9E9" transform="translate(700,304)"/>
<path d="M0 0 C0.639375 0.33 1.27875 0.66 1.9375 1 C3.96525921 2.22866351 3.96525921 2.22866351 6.25 1.625 C6.8275 1.41875 7.405 1.2125 8 1 C7.649375 1.78375 7.29875 2.5675 6.9375 3.375 C6.628125 4.24125 6.31875 5.1075 6 6 C6.33 6.66 6.66 7.32 7 8 C2.56541027 6.6062718 0.12621626 4.39417765 -3 1 C-2.01 0.67 -1.02 0.34 0 0 Z " fill="#DFDFDF" transform="translate(640,624)"/>
<path d="M0 0 C0.99 0.66 1.98 1.32 3 2 C-1.95 3.485 -1.95 3.485 -7 5 C-7.99 3.68 -8.98 2.36 -10 1 C-6.47005387 -0.17664871 -3.70544587 -0.19850603 0 0 Z " fill="#1A1A1A" transform="translate(781,361)"/>
<path d="M0 0 C0.66 3.96 1.32 7.92 2 12 C1.34 12 0.68 12 0 12 C-0.67154933 10.71086513 -1.33708859 9.41859796 -2 8.125 C-2.37125 7.40570312 -2.7425 6.68640625 -3.125 5.9453125 C-4 4 -4 4 -4 2 C-1 0 -1 0 0 0 Z " fill="#E1E1E1" transform="translate(635,680)"/>
<path d="M0 0 C2.31 0 4.62 0 7 0 C6.01 0.495 6.01 0.495 5 1 C4.65846063 2.66500443 4.32550502 4.33178677 4 6 C3.34 6.66 2.68 7.32 2 8 C2 7.34 2 6.68 2 6 C1.34 6 0.68 6 0 6 C-1.125 2.25 -1.125 2.25 0 0 Z " fill="#2B2B2B" transform="translate(812,404)"/>
<path d="M0 0 C0.33 1.65 0.66 3.3 1 5 C-5.75 4.25 -5.75 4.25 -8 2 C-4.77208445 -0.1519437 -3.71599191 -0.20086443 0 0 Z " fill="#080808" transform="translate(696,648)"/>
<path d="M0 0 C0.66 0.99 1.32 1.98 2 3 C0.92729525 7.290819 -0.9937694 11.07762195 -4.25 14.0625 C-4.8275 14.371875 -5.405 14.68125 -6 15 C-4.40109514 9.80355921 -2.25861997 4.93387858 0 0 Z " fill="#D1D1D1" transform="translate(735,326)"/>
<path d="M0 0 C1.32 0.66 2.64 1.32 4 2 C2.55922954 5.36179774 0.75249979 7.59156268 -2 10 C-2.66 10 -3.32 10 -4 10 C-2.8905928 6.51329166 -1.73662334 3.22515763 0 0 Z " fill="#292929" transform="translate(755,296)"/>
<path d="M0 0 C-0.33 1.65 -0.66 3.3 -1 5 C-6.75 3.25 -6.75 3.25 -9 1 C-5.57367167 -0.61798838 -3.61944899 -1.34053666 0 0 Z " fill="#D9D9D9" transform="translate(807,522)"/>
<path d="M0 0 C0.66 0.33 1.32 0.66 2 1 C1.01 2.485 1.01 2.485 0 4 C-0.33 4.99 -0.66 5.98 -1 7 C-2.65 7.33 -4.3 7.66 -6 8 C-6 5 -6 5 -4.6875 3.61328125 C-3.125 2.40885417 -1.5625 1.20442708 0 0 Z " fill="#D3D3D3" transform="translate(821,623)"/>
<path d="M0 0 C2.67901932 2.31881505 3.66204403 4.31814468 4.6875 7.6875 C4.93886719 8.49574219 5.19023438 9.30398438 5.44921875 10.13671875 C5.63097656 10.75160156 5.81273437 11.36648438 6 12 C3.5625 11.0625 3.5625 11.0625 1 9 C0.2475065 6.01122299 0.07090135 3.07454047 0 0 Z " fill="#DADADA" transform="translate(689,382)"/>
<path d="M0 0 C1.134375 0.020625 2.26875 0.04125 3.4375 0.0625 C3.7675 2.0425 4.0975 4.0225 4.4375 6.0625 C0.66204612 4.97181332 -2.03293472 4.1541909 -4.5625 1.0625 C-3.5625 0.0625 -3.5625 0.0625 0 0 Z " fill="#D7D7D7" transform="translate(651.5625,630.9375)"/>
<path d="M0 0 C0.99 0.33 1.98 0.66 3 1 C0.525 5.455 0.525 5.455 -2 10 C-2.66 9.34 -3.32 8.68 -4 8 C-3.625 5.375 -3.625 5.375 -3 3 C-2.34 3 -1.68 3 -1 3 C-0.67 2.01 -0.34 1.02 0 0 Z " fill="#E7E7E7" transform="translate(613,440)"/>
<path d="M0 0 C-1.05875074 3.40312738 -2.00902154 6.01353231 -4 9 C-4.66 9 -5.32 9 -6 9 C-5.6875 5.625 -5.6875 5.625 -5 2 C-2 0 -2 0 0 0 Z " fill="#F2F2F2" transform="translate(754,298)"/>
<path d="M0 0 C0.99 0.33 1.98 0.66 3 1 C3 3 3 5 3 7 C2.34 7.66 1.68 8.32 1 9 C0.01 6.69 -0.98 4.38 -2 2 C-1.34 1.34 -0.68 0.68 0 0 Z " fill="#EAEAEA" transform="translate(691,286)"/>
<path d="M0 0 C1.65 0 3.3 0 5 0 C5.66 2.64 6.32 5.28 7 8 C5.02 8.99 3.04 9.98 1 11 C1.99 7.7 2.98 4.4 4 1 C2.68 0.67 1.36 0.34 0 0 Z " fill="#E4E4E4" transform="translate(741,664)"/>
<path d="M0 0 C0.495 0.680625 0.99 1.36125 1.5 2.0625 C0.51 2.5575 0.51 2.5575 -0.5 3.0625 C-0.83 4.0525 -1.16 5.0425 -1.5 6.0625 C-2.16 4.0825 -2.82 2.1025 -3.5 0.0625 C-5.81 0.0625 -8.12 0.0625 -10.5 0.0625 C-10.5 -0.2675 -10.5 -0.5975 -10.5 -0.9375 C-3.11538462 -2.41442308 -3.11538462 -2.41442308 0 0 Z " fill="#E0E0E0" transform="translate(603.5,573.9375)"/>
<path d="M0 0 C-1.92653798 4.44585687 -4.74921902 5.94789884 -9 8 C-9.66 7.34 -10.32 6.68 -11 6 C-9.54550599 4.9944239 -8.08627557 3.99569565 -6.625 3 C-5.40683594 2.1646875 -5.40683594 2.1646875 -4.1640625 1.3125 C-2 0 -2 0 0 0 Z " fill="#2C2C2C" transform="translate(645,416)"/>
<path d="M0 0 C0.99 1.32 1.98 2.64 3 4 C1.93453047 6.13093906 0.70840281 7.36587557 -1 9 C-1.66 7.02 -2.32 5.04 -3 3 C-2.01 2.01 -1.02 1.02 0 0 Z " fill="#D2D2D2" transform="translate(699,299)"/>
<path d="M0 0 C2.31 0 4.62 0 7 0 C7 0.99 7 1.98 7 3 C7.99 3.33 8.98 3.66 10 4 C9.67 5.32 9.34 6.64 9 8 C8.34 8 7.68 8 7 8 C6.67 8.66 6.34 9.32 6 10 C5.67 9.01 5.34 8.02 5 7 C5.66 6.34 6.32 5.68 7 5 C6.34 5 5.68 5 5 5 C5.33 3.68 5.66 2.36 6 1 C4.02 1 2.04 1 0 1 C0 0.67 0 0.34 0 0 Z " fill="#D1D1D1" transform="translate(699,258)"/>
<path d="M0 0 C0.66 0 1.32 0 2 0 C2 0.66 2 1.32 2 2 C3.32 1.67 4.64 1.34 6 1 C5.67 2.98 5.34 4.96 5 7 C3.02 5.35 1.04 3.7 -1 2 C-0.67 1.34 -0.34 0.68 0 0 Z " fill="#DADADA" transform="translate(631,618)"/>
<path d="M0 0 C2.1640625 0.2421875 2.1640625 0.2421875 4.625 0.875 C5.44226563 1.07867187 6.25953125 1.28234375 7.1015625 1.4921875 C8.04128906 1.74355469 8.04128906 1.74355469 9 2 C9 3.32 9 4.64 9 6 C5.27566618 4.7874262 1.62197194 3.49140021 -2 2 C-1.34 1.34 -0.68 0.68 0 0 Z " fill="#272727" transform="translate(757,410)"/>
<path d="M0 0 C0.66 0 1.32 0 2 0 C0.77782954 4.04256383 -0.62754296 7.49288959 -3 11 C-3.33 11 -3.66 11 -4 11 C-4 8.69 -4 6.38 -4 4 C-3.01 3.67 -2.02 3.34 -1 3 C-0.67 2.01 -0.34 1.02 0 0 Z " fill="#181818" transform="translate(731,331)"/>
<path d="M0 0 C-0.375 2.9375 -0.375 2.9375 -1 6 C-1.99 6.495 -1.99 6.495 -3 7 C-3.99 6.34 -4.98 5.68 -6 5 C-4.87312259 1.61936778 -3.78825335 0 0 0 Z " fill="#080808" transform="translate(700,312)"/>
<path d="M0 0 C0.33 2.31 0.66 4.62 1 7 C0.01 7.33 -0.98 7.66 -2 8 C-2.99 5.69 -3.98 3.38 -5 1 C-3 0 -3 0 0 0 Z " fill="#121212" transform="translate(703,295)"/>
<path d="M0 0 C1.98 0.495 1.98 0.495 4 1 C4 2.65 4 4.3 4 6 C4.66 6.33 5.32 6.66 6 7 C5.01 7.33 4.02 7.66 3 8 C0.9375 5.6875 0.9375 5.6875 -1 3 C-0.67 2.01 -0.34 1.02 0 0 Z " fill="#151515" transform="translate(596,698)"/>
<path d="M0 0 C1.12588014 0.95729916 2.2506715 1.91587895 3.375 2.875 C4.00148438 3.40867187 4.62796875 3.94234375 5.2734375 4.4921875 C6.55836651 5.61432007 7.79371975 6.79371975 9 8 C7.68 8.33 6.36 8.66 5 9 C2 5.25 2 5.25 2 3 C1.01 2.67 0.02 2.34 -1 2 C-0.67 1.34 -0.34 0.68 0 0 Z " fill="#1A1A1A" transform="translate(628,618)"/>
<path d="M0 0 C0 0.66 0 1.32 0 2 C-2.31 2 -4.62 2 -7 2 C-7.33 2.99 -7.66 3.98 -8 5 C-8.66 4.67 -9.32 4.34 -10 4 C-9.625 2.0625 -9.625 2.0625 -9 0 C-5.93109813 -1.53445094 -3.29905734 -0.54984289 0 0 Z " fill="#E9E9E9" transform="translate(699,257)"/>
<path d="M0 0 C0.66 0.33 1.32 0.66 2 1 C0.9375 3.375 0.9375 3.375 -1 6 C-4.6875 7.3125 -4.6875 7.3125 -8 8 C-3.375 3.125 -3.375 3.125 0 2 C0 1.34 0 0.68 0 0 Z " fill="#D0D0D0" transform="translate(728,693)"/>
<path d="M0 0 C6.93 0.495 6.93 0.495 14 1 C14 1.33 14 1.66 14 2 C12.35 2 10.7 2 9 2 C9 2.66 9 3.32 9 4 C5.85262818 3.30058404 2.97411124 2.23921302 0 1 C0 0.67 0 0.34 0 0 Z " fill="#CDCDCD" transform="translate(674,651)"/>
<path d="M0 0 C3.96 0 7.92 0 12 0 C12 0.66 12 1.32 12 2 C12.66 2.66 13.32 3.32 14 4 C9.23649415 3.28547412 4.65798604 2.20465156 0 1 C0 0.67 0 0.34 0 0 Z " fill="#424242" transform="translate(640,643)"/>
<path d="M0 0 C0.99 0.33 1.98 0.66 3 1 C1.02 3.31 -0.96 5.62 -3 8 C-3.66 7.34 -4.32 6.68 -5 6 C-4.34 5.01 -3.68 4.02 -3 3 C-2.34 3 -1.68 3 -1 3 C-0.67 2.01 -0.34 1.02 0 0 Z " fill="#171717" transform="translate(662,419)"/>
<path d="M0 0 C2.84326464 -0.23053497 4.46145349 -0.35903101 6.875 1.25 C8 3 8 3 7.5703125 5.109375 C7.38210938 5.73328125 7.19390625 6.3571875 7 7 C5.83040013 6.02433888 4.66438823 5.044375 3.5 4.0625 C2.8503125 3.51722656 2.200625 2.97195313 1.53125 2.41015625 C1.0259375 1.94480469 0.520625 1.47945313 0 1 C0 0.67 0 0.34 0 0 Z " fill="#232323" transform="translate(679,371)"/>
<path d="M0 0 C2.6855594 2.6855594 3.06049974 5.37621328 4 9 C1.69 7.02 -0.62 5.04 -3 3 C-2.01 2.01 -1.02 1.02 0 0 Z " fill="#2D2D2D" transform="translate(706,324)"/>
<path d="M0 0 C0.66 0.33 1.32 0.66 2 1 C-0.23407889 4.35111834 -1.26215824 5.81553956 -5.25 6.8125 C-6.61125 6.9053125 -6.61125 6.9053125 -8 7 C-5.4837822 4.39391727 -2.94865641 2.10618315 0 0 Z " fill="#313131" transform="translate(769,628)"/>
<path d="M0 0 C0.98120464 3.05263664 0.98120464 4.94736336 0 8 C-1.65 6.35 -3.3 4.7 -5 3 C-3.35 2.01 -1.7 1.02 0 0 Z " fill="#E9E9E9" transform="translate(630,611)"/>
<path d="M0 0 C1.65 0 3.3 0 5 0 C5 2.97 5 5.94 5 9 C0.57142857 3.85714286 0.57142857 3.85714286 0 0 Z " fill="#DFDFDF" transform="translate(607,588)"/>
<path d="M0 0 C2.97 0.99 5.94 1.98 9 3 C7 5 7 5 3.375 5.125 C2.26125 5.08375 1.1475 5.0425 0 5 C0.33 4.01 0.66 3.02 1 2 C0.67 1.34 0.34 0.68 0 0 Z " fill="#E2E2E2" transform="translate(655,522)"/>
<path d="M0 0 C0.79921875 0.00902344 1.5984375 0.01804687 2.421875 0.02734375 C3.02515625 0.03894531 3.6284375 0.05054688 4.25 0.0625 C0.5 2.0625 0.5 2.0625 -1.75 2.0625 C-1.75 2.7225 -1.75 3.3825 -1.75 4.0625 C-4.25357861 3.2279738 -6.41785852 2.26878008 -8.75 1.0625 C-5.75519083 0.1901588 -3.11424089 -0.04579766 0 0 Z " fill="#CBCBCB" transform="translate(792.75,360.9375)"/>
<path d="M0 0 C0.99 0.99 1.98 1.98 3 3 C2.01 4.485 2.01 4.485 1 6 C-0.32 5.67 -1.64 5.34 -3 5 C-2 2 -2 2 0 0 Z " fill="#EEEEEE" transform="translate(683,306)"/>
<path d="M0 0 C1.98 1.65 3.96 3.3 6 5 C5.34 5.66 4.68 6.32 4 7 C2 7 2 7 -1 6 C-0.34 6 0.32 6 1 6 C0.67 4.02 0.34 2.04 0 0 Z " fill="#DADADA" transform="translate(674,296)"/>
<path d="M0 0 C1.98 0.66 3.96 1.32 6 2 C6 2.66 6 3.32 6 4 C4.35 4.33 2.7 4.66 1 5 C1 4.34 1 3.68 1 3 C0.01 2.67 -0.98 2.34 -2 2 C-1.34 2 -0.68 2 0 2 C0 1.34 0 0.68 0 0 Z " fill="#0D0D0D" transform="translate(687,710)"/>
<path d="M0 0 C0.99 0.33 1.98 0.66 3 1 C0.47211993 3.79872437 -1.20411134 5.45773019 -5 6 C-3.63016497 2.83884224 -3.0109362 2.0072908 0 0 Z " fill="#E7E7E7" transform="translate(759,632)"/>
<path d="M0 0 C-1.65 1.65 -3.3 3.3 -5 5 C-7.475 4.01 -7.475 4.01 -10 3 C-7.28464405 0.28464405 -3.67870689 -1.83935344 0 0 Z " fill="#CFCFCF" transform="translate(698,713)"/>
<path d="M0 0 C0.33 0.99 0.66 1.98 1 3 C1.99 3.33 2.98 3.66 4 4 C4.33 4.99 4.66 5.98 5 7 C4.01 7 3.02 7 2 7 C-0.1875 4.5 -0.1875 4.5 -2 2 C-1.34 2 -0.68 2 0 2 C0 1.34 0 0.68 0 0 Z " fill="#E5E5E5" transform="translate(659,462)"/>
<path d="M0 0 C2.475 0.99 2.475 0.99 5 2 C4.67 3.32 4.34 4.64 4 6 C2.35 5.67 0.7 5.34 -1 5 C-0.34 4.67 0.32 4.34 1 4 C0.67 2.68 0.34 1.36 0 0 Z " fill="#D0D0D0" transform="translate(706,330)"/>
<path d="M0 0 C0.33 1.32 0.66 2.64 1 4 C-1.375 5.5625 -1.375 5.5625 -4 7 C-4.66 6.67 -5.32 6.34 -6 6 C-4.02 4.02 -2.04 2.04 0 0 Z " fill="#D3D3D3" transform="translate(764,306)"/>
<path d="M0 0 C0 3 0 3 -2.5 5.6875 C-3.325 6.450625 -4.15 7.21375 -5 8 C-5.66 7.34 -6.32 6.68 -7 6 C-4.69 4.02 -2.38 2.04 0 0 Z " fill="#222222" transform="translate(689,263)"/>
<path d="M0 0 C1.98 0.99 1.98 0.99 4 2 C3.6875 3.9375 3.6875 3.9375 3 6 C2.01 6.33 1.02 6.66 0 7 C0 4.69 0 2.38 0 0 Z " fill="#E4E4E4" transform="translate(772,618)"/>
<path d="M0 0 C6.625 -0.25 6.625 -0.25 10 2 C10 2.66 10 3.32 10 4 C6.7 3.01 3.4 2.02 0 1 C0 0.67 0 0.34 0 0 Z " fill="#252525" transform="translate(654,521)"/>
<path d="M0 0 C1.32 0.33 2.64 0.66 4 1 C4.33 2.32 4.66 3.64 5 5 C3.68 5 2.36 5 1 5 C0.67 3.35 0.34 1.7 0 0 Z " fill="#EBEBEB" transform="translate(694,297)"/>
<path d="M0 0 C0 0.99 0 1.98 0 3 C-2.64 3 -5.28 3 -8 3 C-7 1 -7 1 -4.5625 -0.1875 C-2 -1 -2 -1 0 0 Z " fill="#CCCCCC" transform="translate(712,707)"/>
<path d="M0 0 C0.33 1.32 0.66 2.64 1 4 C-0.65 4.33 -2.3 4.66 -4 5 C-4.33 3.68 -4.66 2.36 -5 1 C-3.68 1 -2.36 1 -1 1 C-0.67 0.67 -0.34 0.34 0 0 Z " fill="#EDEDED" transform="translate(648,704)"/>
<path d="M0 0 C1.33332095 2.6666419 0.67102033 4.16680303 0 7 C-0.33 6.34 -0.66 5.68 -1 5 C-1.99 5.33 -2.98 5.66 -4 6 C-3.67 4.35 -3.34 2.7 -3 1 C-2.01 0.67 -1.02 0.34 0 0 Z " fill="#DADADA" transform="translate(694,678)"/>
<path d="M0 0 C0 1.65 0 3.3 0 5 C-0.99 5.495 -0.99 5.495 -2 6 C-2.99 4.35 -3.98 2.7 -5 1 C-3 0 -3 0 0 0 Z " fill="#E9E9E9" transform="translate(631,673)"/>
<path d="M0 0 C0.99 0.66 1.98 1.32 3 2 C1.02 3.32 -0.96 4.64 -3 6 C-3.33 5.01 -3.66 4.02 -4 3 C-2.68 2.01 -1.36 1.02 0 0 Z " fill="#DBDBDB" transform="translate(769,625)"/>
<path d="M0 0 C2.64 1.32 5.28 2.64 8 4 C6 5 6 5 3.8359375 4.44140625 C3.02382813 4.15136719 2.21171875 3.86132812 1.375 3.5625 C0.55773437 3.27503906 -0.25953125 2.98757813 -1.1015625 2.69140625 C-1.72804688 2.46324219 -2.35453125 2.23507812 -3 2 C-2.01 1.34 -1.02 0.68 0 0 Z " fill="#BABABA" transform="translate(715,552)"/>
<path d="M0 0 C0.33 0.66 0.66 1.32 1 2 C1.99 2.33 2.98 2.66 4 3 C2.35 4.32 0.7 5.64 -1 7 C-1 3 -1 3 0 0 Z " fill="#DEDEDE" transform="translate(619,430)"/>
<path d="M0 0 C2.35953094 2.35953094 2.49141413 3.77895617 3 7 C1.02 5.35 -0.96 3.7 -3 2 C-2.01 1.34 -1.02 0.68 0 0 Z " fill="#D9D9D9" transform="translate(770,269)"/>
<path d="M0 0 C3.96 1.98 3.96 1.98 8 4 C8 4.33 8 4.66 8 5 C6.02 5 4.04 5 2 5 C1.34 3.35 0.68 1.7 0 0 Z " fill="#181818" transform="translate(646,632)"/>
<path d="M0 0 C1.65 0.33 3.3 0.66 5 1 C4.34 2.32 3.68 3.64 3 5 C1.68 4.34 0.36 3.68 -1 3 C-0.67 2.01 -0.34 1.02 0 0 Z " fill="#212121" transform="translate(748,551)"/>
<path d="M0 0 C3.65316671 1.24976756 4.78065836 1.67098753 7 5 C4.36 4.34 1.72 3.68 -1 3 C-0.67 2.01 -0.34 1.02 0 0 Z " fill="#191919" transform="translate(715,539)"/>
<path d="M0 0 C1.65 1.65 3.3 3.3 5 5 C3 5 1 5 -1 5 C-0.67 3.35 -0.34 1.7 0 0 Z " fill="#E5E5E5" transform="translate(617,498)"/>
<path d="M0 0 C1.10191901 4.40767604 0.58706842 5.8922935 -1 10 C-1.66 9.67 -2.32 9.34 -3 9 C-2.01 6.03 -1.02 3.06 0 0 Z " fill="#CBCBCB" transform="translate(748,299)"/>
</svg>
