<?xml version="1.0" encoding="utf-8"?>
<!DOCTYPE svg PUBLIC "-//W3C//DTD SVG 1.0//EN" "http://www.w3.org/TR/2001/REC-SVG-20010904/DTD/svg10.dtd">
<svg version="1.0" xmlns="http://www.w3.org/2000/svg" width="1470px" height="980px" viewBox="0 0 1470 980" preserveAspectRatio="xMidYMid meet">
 <g fill="#000000">
  <path d="M635.6 723 c-23.8 -3 -38.9 -10.2 -44.9 -21.4 -1.8 -3.4 -2.2 -5.7 -2.2 -14.2 0 -9.2 0.2 -10.4 2.7 -14.1 3.9 -5.9 9.5 -8.3 19.4 -8.3 14.2 0 19.8 4.7 26.8 22.4 5 12.7 8.9 18.4 14.5 21.5 5.9 3.2 11.4 3.2 18.5 -0.3 10.4 -5.1 18.1 -16.9 21.1 -32.6 0.9 -4.7 1.8 -9.5 2.1 -10.7 0.4 -2.3 0.6 -2.3 17.7 -2.3 9.4 0 21.6 -0.3 27.1 -0.7 l9.9 -0.6 -0.5 5.4 c-0.9 10.9 -10.4 25.6 -22.2 34.4 -12.7 9.5 -30.6 16.9 -48.1 19.9 -11.1 2 -32.6 2.8 -41.9 1.6z"/>
  <path d="M688 656 c-19.9 -2.5 -31 -4.5 -48.7 -9.1 -10.6 -2.7 -20.5 -4.9 -22 -4.9 -3.6 0 -13.2 4.5 -13.9 6.5 -0.5 1.1 -2.2 1.5 -7.7 1.5 l-7 0 0.6 -15.7 c0.4 -8.7 0.7 -26.5 0.7 -39.5 l0 -23.8 6.3 0 6.3 0 4.3 8.8 c6.9 13.9 14.7 25.1 24 34.2 11.8 11.7 23.3 19 38.3 24.4 8.3 2.9 24.5 6.3 25.5 5.2 0.4 -0.4 1 -22.3 1.1 -48.7 l0.4 -47.9 4.5 0 c4.7 0 38.4 10.7 47.8 15.2 l5 2.3 0 34.8 c0 19.1 0.2 34.7 0.5 34.7 0.3 0 2.5 -1.4 5 -3 14.8 -9.8 22.8 -24.3 20 -36.2 -3 -12.7 -11.3 -23.7 -23.6 -31.4 -11.7 -7.3 -27.2 -13.3 -71.9 -27.7 -24 -7.8 -32.6 -11.1 -43.9 -16.8 -16.8 -8.4 -25.8 -16.5 -31.7 -28.4 -6.5 -13.3 -6.3 -31.2 0.7 -45.4 4.2 -8.5 14.8 -20.2 23.7 -26.3 13.8 -9.4 34.1 -17.2 51.6 -19.9 4.4 -0.7 8.1 -1.6 8.1 -2 0 -0.5 -1.1 -3.4 -2.5 -6.4 -5.3 -12 -20.1 -22.7 -35.5 -25.5 -3.6 -0.7 -7.1 -1.4 -7.7 -1.6 -0.9 -0.2 -1.3 -2.3 -1.3 -5.9 l0 -5.5 79.3 0.2 79.2 0.3 0 5.5 0 5.5 -7.5 0.7 c-11.9 1.2 -21 5 -28.4 11.8 -4.8 4.5 -10.3 14.5 -11.2 20.6 l-0.6 4.1 17.3 4.2 c9.6 2.4 20 4.5 23.1 4.8 5.7 0.6 5.8 0.5 9.9 -3.6 3.7 -3.6 4.9 -4.2 9.9 -4.8 l5.7 -0.6 0.6 7.4 c0.4 4.1 0.9 21.5 1.3 38.7 l0.7 31.2 -6.2 0 -6.1 0 -4.1 -8.2 c-9.3 -18.7 -17.8 -30.4 -28.7 -39.4 -15.5 -12.8 -32.2 -19.6 -52.6 -21.3 -30.7 -2.5 -59.7 8.8 -68.9 27.1 -4.2 8.2 -4.4 11.6 -1.3 18.5 4.6 10 14.9 18.8 31 26.4 l8.1 3.8 0.5 -34.7 0.5 -34.7 9.5 -0.8 c10.6 -0.9 34.5 0.5 42.5 2.5 l5 1.3 0.3 42.1 0.2 42.1 14.3 4.7 c30 9.8 48.3 19.4 61.2 32.1 9.7 9.5 14.6 18.4 16.5 29.7 7 41.3 -26.5 74.4 -86 84.9 -9.1 1.7 -16.9 2.1 -38 2.4 -14.6 0.2 -29.9 0 -34 -0.5z"/>
  <path d="M715.9 342 c-1.9 -4.5 -2.4 -5 -5.4 -5 -3 0 -5.3 -2.1 -24.4 -22.2 l-21 -22.3 -0.1 -6.1 0 -6.2 12.6 -12.1 12.5 -12 33.6 -0.1 33.5 0 3.7 3.2 c2 1.7 7.8 7.1 12.9 11.9 l9.2 8.7 0 6.4 0 6.5 -20.6 21.9 c-18.2 19.3 -21.1 21.9 -24.1 22.2 -2.9 0.3 -3.7 1 -5.5 4.6 -1.9 4 -2.5 4.4 -6.6 5 -7.8 1.1 -8 1 -10.3 -4.4z"/>
 </g>
 <g fill="#ffffff">
  <path d="M0 490 l0 -490 735 0 735 0 0 490 0 490 -735 0 -735 0 0 -490z m674.5 228.4 c24.6 -4.1 49 -16.9 59.8 -31.3 4.7 -6.3 9 -14.5 10.3 -19.5 l0.7 -2.9 -5.4 0.6 c-3 0.4 -13.8 0.7 -24.1 0.7 -18.6 0 -18.8 0 -19.2 2.3 -0.3 1.2 -1.2 6 -2.1 10.7 -4.3 22.1 -17 35.5 -34 35.5 -12.9 0 -18.6 -5.3 -26.1 -24.1 -2.1 -5.4 -5.2 -11.7 -6.9 -13.9 -8.4 -11.2 -26 -11.3 -33.3 -0.2 -2.3 3.5 -2.7 5.1 -2.7 11.1 0.1 5.3 0.6 8.1 2.2 11.2 9.3 17.6 43.9 26 80.8 19.8z m82.5 -67.3 c29 -5.1 51.7 -15.2 66.8 -29.9 20 -19.4 25.2 -43.2 14 -64.5 -4.5 -8.5 -17.1 -20.8 -27.9 -27.2 -11.1 -6.5 -27.1 -13.4 -44.6 -19.1 l-14.3 -4.7 -0.2 -42.1 -0.3 -42.1 -5 -1.3 c-7.7 -1.9 -28.1 -3.2 -37.5 -2.4 l-8.5 0.7 -0.3 35.4 -0.2 35.3 -3.1 -0.6 c-4.6 -0.9 -18.9 -7.8 -25.5 -12.4 -8.3 -5.7 -13.9 -11.8 -17 -18.5 -6.9 -15.3 2.1 -33.4 21.7 -43.2 22.4 -11.3 57.9 -12.1 82.9 -1.8 23.2 9.6 38.4 25.1 52.9 54.1 3.8 7.6 4.3 8.2 7.2 8.2 l3.1 0 -0.6 -27.7 c-0.4 -15.3 -0.9 -31.3 -1.2 -35.5 l-0.6 -7.7 -2.9 0.6 c-1.6 0.3 -4.7 2.3 -6.9 4.5 l-4 4 -8.2 -0.4 c-5.2 -0.2 -15.1 -2 -26.5 -4.8 -20.7 -5 -19.4 -3.8 -16.8 -14.9 4.4 -18.6 18.2 -29.7 39.5 -31.9 7.1 -0.7 7.5 -0.8 7.5 -3.2 l0 -2.5 -76.2 -0.3 -76.3 -0.2 0 2.5 c0 2.8 -0.2 2.7 9 4.5 16.4 3 31 14 36.3 27.3 4.3 10.8 4.2 11.1 -5.8 12.5 -12.4 1.8 -24.6 5.6 -36.2 11.2 -13.7 6.5 -20.4 11.3 -28.9 20.3 -19.7 20.7 -21.2 46.2 -3.8 65.6 11.4 12.6 27.5 20.7 67.9 33.8 57.9 18.7 73.3 25.6 84 37.5 18.7 20.8 15.7 47.2 -7 62.8 -3.7 2.5 -11.9 7 -12.9 7 -0.2 0 -0.3 -16.3 -0.2 -36.2 l0.1 -36.3 -5 -2.3 c-5.8 -2.8 -42.5 -15.2 -44.9 -15.2 -1.4 0 -1.6 3.9 -1.6 39.8 0 22 -0.3 44 -0.6 49 l-0.7 9.1 -4.6 -0.5 c-40.6 -4.6 -70.1 -26 -89.2 -64.6 -4.1 -8.4 -4.5 -8.8 -7.6 -8.8 l-3.3 0 0 25.3 c0 13.8 -0.3 30.3 -0.7 36.5 l-0.6 11.2 4 0 c2.8 0 4.3 -0.5 4.7 -1.5 0.3 -0.9 2.9 -2.7 5.8 -4 7.9 -3.7 13.6 -3.3 36.1 2.4 17.7 4.6 28.7 6.6 48.7 9.1 13 1.5 52.8 0.4 66 -1.9z m-35 -334.6 l0 -27.5 -13.5 0 c-7.4 0 -13.5 0.2 -13.5 0.5 0 0.3 5.2 11.2 11.6 24.3 6.4 13 12.2 25.2 13 27 0.8 1.7 1.6 3.2 1.9 3.2 0.3 0 0.5 -12.4 0.5 -27.5z m26 -15.2 l6 -12.3 -13.5 0 -13.5 0 0.1 27.3 0 27.2 7.4 -15 c4.1 -8.2 10.2 -20.5 13.5 -27.2z m-43.4 19.5 c-3.5 -7.3 -8.3 -17.4 -10.7 -22.5 l-4.4 -9.2 -10.9 -0.1 -10.9 0 6.4 6.8 c3.5 3.7 13.1 13.8 21.3 22.5 8.2 8.6 15 15.7 15.2 15.7 0.2 0 -2.5 -6 -6 -13.2z m53.4 -7.8 c9.6 -10.2 18.5 -19.8 19.9 -21.3 l2.5 -2.8 -10.7 0.3 -10.8 0.3 -10.4 21.5 c-10.2 21.1 -11.8 24.9 -9.2 22 0.8 -0.8 9.2 -9.8 18.7 -20z m-60.8 -40.9 c4.3 -6.3 7.8 -11.8 7.8 -12.3 0 -0.4 -2.7 -0.8 -5.9 -0.8 l-5.9 0 -12.9 12.5 -12.8 12.5 10.9 -0.3 10.9 -0.2 7.9 -11.4z m24.6 -0.3 l-0.3 -12.3 -4.5 -0.3 c-2.5 -0.1 -5 0.1 -5.6 0.5 -1.1 0.8 -16.4 23 -16.4 23.8 0 0.3 6.1 0.5 13.5 0.5 l13.6 0 -0.3 -12.2z m23.9 0 l-8.4 -12.3 -5.1 -0.3 -5.2 -0.3 0 12.5 0 12.6 13.6 0 13.5 0 -8.4 -12.2z m34.3 11.6 c0 -0.6 -15.4 -15.4 -22.1 -21.2 -3.2 -2.8 -4.4 -3.2 -9.3 -3.2 -3.1 0 -5.6 0.2 -5.6 0.6 0 0.3 3.7 5.9 8.2 12.5 l8.2 11.9 10.3 0 c5.7 0 10.3 -0.3 10.3 -0.6z"/>
 </g>
</svg>